<svg xmlns="http://www.w3.org/2000/svg" width="334" height="206" viewBox="0 0 334 206" fill="none"><path opacity="0.1" d="M166.994 205.999C145.053 206.059 123.315 201.744 103.031 193.301C82.7478 184.858 64.3174 172.454 48.7995 156.802C33.2816 141.15 20.9821 122.559 12.6075 102.096C4.233 81.6326 -0.0514247 59.7016 0.000486639 37.5627L57.5791 37.5627C57.5791 100.171 106.663 147.972 166.994 147.972C227.326 147.972 276.421 100.114 276.421 37.5627L334 37.5627C334.05 59.7021 329.764 81.6334 321.388 102.096C313.013 122.56 300.712 141.151 285.193 156.803C269.674 172.455 251.243 184.858 230.959 193.301C210.675 201.744 188.937 206.059 166.994 205.999ZM168.275 94.5586C153.297 94.5227 138.942 88.5089 128.343 77.8301C117.745 67.1513 111.764 52.6752 111.708 37.5627L79.1206 37.5627C79.1206 89.7173 119.102 127.495 168.253 127.495C217.404 127.495 257.385 89.7173 257.385 37.5627L224.798 37.5627C224.739 52.6664 218.763 67.134 208.175 77.8108C197.587 88.4877 183.245 94.5078 168.275 94.5586ZM132.598 35.8166C132.6 28.731 134.684 21.8052 138.588 15.9148C142.491 10.0244 148.037 5.43399 154.526 2.72399C161.015 0.0139979 168.154 -0.693892 175.041 0.689817C181.929 2.07353 188.255 5.48671 193.22 10.4978C198.184 15.5089 201.565 21.8928 202.934 28.8424C204.304 35.7921 203.6 42.9953 200.912 49.5413C198.224 56.0874 193.673 61.6823 187.833 65.6186C181.994 69.5549 175.129 71.6559 168.107 71.6559C158.687 71.6499 149.655 67.8724 142.993 61.1529C136.331 54.4333 132.584 45.321 132.575 35.8166L132.598 35.8166ZM168.107 49.7283C170.834 49.7283 173.5 48.9124 175.767 47.3838C178.034 45.8551 179.802 43.6824 180.845 41.1404C181.889 38.5984 182.162 35.8012 181.63 33.1026C181.098 30.404 179.785 27.9252 177.856 25.9796C175.928 24.034 173.471 22.709 170.797 22.1723C168.122 21.6355 165.35 21.911 162.83 22.9639C160.311 24.0168 158.158 25.7999 156.643 28.0877C155.128 30.3755 154.319 33.0652 154.319 35.8166C154.322 39.5014 155.772 43.0347 158.353 45.6423C160.933 48.25 164.432 49.7193 168.084 49.7283L168.107 49.7283Z" fill="#4E6273"></path></svg>