<svg xmlns="http://www.w3.org/2000/svg" width="161" height="323" viewBox="0 0 161 323" fill="none"><path d="M0.000595093 161.242C-0.0574646 140.056 4.13232 119.068 12.3293 99.4826C20.5262 79.8975 32.5687 62.102 47.7648 47.1186C62.9609 32.1353 81.011 20.2593 100.878 12.1732C120.745 4.08716 142.037 -0.0496521 163.531 0.000427246L163.531 55.5958C102.747 55.5958 56.3381 102.989 56.3381 161.242C56.3381 219.496 102.802 266.9 163.531 266.9L163.531 322.495C142.037 322.544 120.744 318.406 100.877 310.318C81.0101 302.231 62.9601 290.354 47.7641 275.37C32.5682 260.386 20.5259 242.589 12.3291 223.004C4.13225 203.418 -0.0574646 182.429 0.000595093 161.242ZM108.196 162.479C108.23 148.017 114.069 134.156 124.437 123.923C134.805 113.689 148.859 107.915 163.531 107.86V76.3953C112.896 76.3953 76.2181 115 76.2181 162.458C76.2181 209.915 112.896 248.52 163.531 248.52L163.531 217.055C148.868 216.998 134.821 211.228 124.455 201.005C114.09 190.781 108.245 176.933 108.196 162.479ZM165.227 128.03C172.106 128.033 178.83 130.045 184.549 133.814C190.268 137.583 194.724 142.938 197.355 149.203C199.986 155.468 200.674 162.362 199.33 169.012C197.987 175.662 194.673 181.77 189.808 186.564C184.943 191.358 178.745 194.622 171.998 195.944C165.25 197.267 158.257 196.587 151.902 193.992C145.546 191.396 140.114 187.002 136.293 181.364C132.471 175.726 130.431 169.097 130.431 162.316C130.437 153.221 134.104 144.5 140.628 138.067C147.152 131.635 155.999 128.017 165.227 128.009V128.03ZM151.72 162.316C151.72 164.95 152.512 167.523 153.996 169.713C155.48 171.902 157.59 173.608 160.058 174.616C162.526 175.624 165.242 175.887 167.862 175.374C170.482 174.86 172.888 173.592 174.777 171.73C176.666 169.868 177.952 167.496 178.474 164.914C178.995 162.331 178.727 159.654 177.705 157.222C176.683 154.789 174.951 152.71 172.73 151.247C170.509 149.784 167.898 149.004 165.227 149.004C161.649 149.006 158.219 150.407 155.687 152.898C153.155 155.39 151.729 158.769 151.72 162.295V162.316Z" fill="white" fill-opacity="0.1"></path></svg>