<svg xmlns="http://www.w3.org/2000/svg" width="554" height="972" viewBox="0 0 554 972" fill="none"><path d="M553.998 486.016C554.173 549.871 541.541 613.131 516.827 672.16C492.113 731.189 455.805 784.825 409.989 829.985C364.173 875.144 309.752 910.938 249.853 935.31C189.954 959.681 125.758 972.15 60.9529 971.999L60.9529 804.434C244.219 804.434 384.141 661.593 384.141 486.016C384.141 310.44 244.053 167.566 60.9529 167.566L60.9529 0.00127942C125.759 -0.145433 189.956 12.327 249.855 36.702C309.754 61.077 364.175 96.8741 409.991 142.037C455.807 187.199 492.115 240.837 516.828 299.868C541.541 358.899 554.173 422.16 553.998 486.016ZM227.79 482.288C227.686 525.877 210.082 567.655 178.823 598.498C147.564 629.342 105.19 646.745 60.9529 646.909L60.9529 741.745C213.619 741.745 324.202 625.392 324.202 482.354C324.202 339.316 213.619 222.963 60.9529 222.963L60.9529 317.798C105.164 317.97 147.514 335.359 178.767 366.172C210.02 396.986 227.642 438.725 227.79 482.288ZM55.8419 586.117C35.101 586.11 14.8277 580.044 -2.41452 568.685C-19.6568 557.326 -33.0937 541.185 -41.0264 522.302C-48.959 503.419 -51.0311 482.642 -46.9808 462.599C-42.9304 442.555 -32.9394 424.145 -18.271 409.696C-3.60267 395.248 15.0843 385.409 35.4272 381.424C55.77 377.439 76.8552 379.488 96.0167 387.31C115.178 395.133 131.555 408.378 143.078 425.371C154.6 442.364 160.75 462.342 160.75 482.779C160.733 510.192 149.675 536.478 130.006 555.865C110.336 575.253 83.6629 586.156 55.8419 586.182V586.117ZM96.5639 482.779C96.5639 474.843 94.1756 467.085 89.701 460.487C85.2264 453.888 78.8665 448.745 71.4255 445.708C63.9846 442.671 55.7967 441.876 47.8974 443.425C39.9981 444.973 32.7421 448.794 27.047 454.406C21.3519 460.018 17.4736 467.167 15.9023 474.951C14.331 482.734 15.1374 490.802 18.2196 498.134C21.3017 505.466 26.5212 511.733 33.2179 516.142C39.9146 520.551 47.7878 522.904 55.8419 522.904C66.6279 522.895 76.9705 518.674 84.6036 511.165C92.2366 503.656 96.5376 493.472 96.5639 482.844V482.779Z" fill="#F5F6F7"></path></svg>