<svg xmlns="http://www.w3.org/2000/svg" width="60" height="52" viewBox="0 0 60 52" fill="none"><path d="M20.8447 26H11.6895V18.6758C11.6895 14.636 14.9739 11.3516 19.0137 11.3516H19.9291C21.4512 11.3516 22.6758 10.1271 22.6758 8.60492V3.11188C22.6758 1.58984 21.4513 0.365234 19.9291 0.365234H19.0137C8.89711 0.365234 0.703125 8.55922 0.703125 18.6758V46.1416C0.703125 49.1743 3.16359 51.6348 6.19629 51.6348H20.8447C23.8774 51.6348 26.3379 49.1743 26.3379 46.1416V31.4932C26.3379 28.4605 23.8774 26 20.8447 26Z" fill="#FF5B05"></path><path d="M53.8037 26H44.6484V18.6758C44.6484 14.636 47.9329 11.3516 51.9727 11.3516H52.8881C54.4102 11.3516 55.6348 10.1271 55.6348 8.60492V3.11188C55.6348 1.58984 54.4103 0.365234 52.8881 0.365234H51.9727C41.8561 0.365234 33.6621 8.55922 33.6621 18.6758V46.1416C33.6621 49.1743 36.1226 51.6348 39.1553 51.6348H53.8037C56.8364 51.6348 59.2969 49.1743 59.2969 46.1416V31.4932C59.2969 28.4605 56.8364 26 53.8037 26Z" fill="#FF5B05"></path></svg>